<svg xmlns="http://www.w3.org/2000/svg" width="199.688" height="180" viewBox="0 0 199.688 180"><g data-name="Gruppe 213"><path fill="#1057fb" d="M154.472 174.183l-4.62-51.232h49.655l-4.682 51.232L174.68 180zm7.516-8.695l12.691 3.628 12.691-3.628 1.725-19.266h-21.743l.308-6.443h14.844l.185 3.691h6.346l-1.357-10.072h-25.135l-1.714 19.079h-.011v.125l.062-.125h21.316l-.74 8.132-6.777 2-6.9-2.064-.427-4.881h-6.288zm14.232-46.853v-3.065h3.08c-1.54-1.5-2.033-2-3.08-3.065v-3.379h7.7v3.378h-3.08l3.08 3.065v3.066zm-4 0h-6.782v-3.253h4.374v-6.318h3.2v9.571z" data-name="Vereinigungsmenge 7"/><path fill="#1057fb" d="M26.739 78.556l-4.572-51.318h50.265l-4.572 51.29-20.6 5.708zm7.648-8.784l12.912 3.6v-.035l12.858-3.565 1.732-19.313H38.987l-.582-6.442h24.051l.582-6.29H31.505l1.718 19.009h14.044v.014h7.759l-.734 8.174-7.007 1.876-7.024-1.88-.443-5.029H33.5zM60.143 22.86V13.3h3.187v6.4h4.517v3.16zm-4.766 0v-4.739l-2.231 3.436-2.231-3.436v4.739h-3.131V13.3h3.339l2.051 3.367 2.05-3.367h3.343v9.56zm-15 0v-6.373h-2.818V13.3h8.825v3.187h-2.825v6.373zm-7.4 0v-3.187h-2.91v3.187H26.85V13.3h3.186v3.159h2.937V13.3h3.187v9.56z" data-name="Vereinigungsmenge 8"/><g fill="#1057fb"><path d="M166.283 51.73s-2.57 1.564 1.788 2.011a36.623 36.623 0 0 0 13.854-.559 20.955 20.955 0 0 0 3.687 1.788c-13.072 5.586-29.607-.335-19.329-3.24zm-1.676-7.262s-2.793 2.123 1.564 2.57a52.84 52.84 0 0 0 17.876-.894 6.815 6.815 0 0 0 2.681 1.676c-15.753 4.692-33.406.447-22.122-3.352zm30.836 12.737s1.9 1.564-2.123 2.793c-7.486 2.235-31.4 2.9-38.1 0-2.346-1.005 2.123-2.458 3.575-2.681a11.137 11.137 0 0 1 2.235-.335c-2.57-1.788-17.094 3.687-7.374 5.251 26.7 4.357 48.713-1.9 41.786-5.028zM167.512 36.87s-12.178 2.9-4.357 3.91c3.352.447 9.944.335 16.089-.112 5.028-.447 10.055-1.341 10.055-1.341a26.882 26.882 0 0 0-3.017 1.564c-12.4 3.24-36.2 1.788-29.384-1.564a23.177 23.177 0 0 1 10.614-2.458zm21.787 12.178c12.513-6.48 6.7-12.737 2.681-11.955a6.99 6.99 0 0 0-1.452.447 1.916 1.916 0 0 1 1.117-.894c7.933-2.793 14.189 8.379-2.57 12.737a1.385 1.385 0 0 0 .223-.335zm-20.558 17.653c12.066.782 30.5-.447 30.948-6.145 0 0-.894 2.235-9.944 3.91a100.567 100.567 0 0 1-30.5.447s1.564 1.341 9.5 1.788z"/><path d="M181.697 0s6.927 7.039-6.592 17.653c-10.837 8.6-2.458 13.519 0 19.105-6.368-5.7-10.949-10.726-7.821-15.418 4.585-6.925 17.213-10.279 14.413-21.34zm-3.571 32.066c3.24 3.687-.894 7.039-.894 7.039s8.268-4.246 4.469-9.5c-3.464-5.028-6.145-7.486 8.379-15.865 0 0-22.9 5.7-11.955 18.323zm-8.268 60V81.115c0-2.793-1.564-4.693-5.475-4.693a15.343 15.343 0 0 0-5.81 1.229l.559 2.011a13.221 13.221 0 0 1 4.469-.894c2.123 0 3.128.894 3.128 2.681v1.452h-1.117c-5.363 0-7.821 2.011-7.821 5.251 0 2.681 1.676 4.246 4.693 4.246a7.2 7.2 0 0 0 4.693-2.011l.223 1.676h2.458zm-3.128-3.575a5.392 5.392 0 0 1-3.464 1.564 2.2 2.2 0 0 1-2.346-2.458c0-1.564.894-2.681 4.469-2.681h1.341v3.575zm13.631 3.575h-3.911l-4.693-15.31h3.352l2.9 9.385.67 2.793a53.928 53.928 0 0 0 3.018-12.178h3.352a63.66 63.66 0 0 1-4.692 15.307zm18.1 0V81.115c0-2.793-1.564-4.693-5.475-4.693a15.343 15.343 0 0 0-5.81 1.229l.447 2.011a14.513 14.513 0 0 1 4.581-.894c2.123 0 3.128.894 3.128 2.681v1.452h-1.118c-5.363 0-7.821 2.011-7.821 5.251 0 2.681 1.564 4.246 4.581 4.246a7.249 7.249 0 0 0 4.8-2.011l.223 1.676h2.458zm-3.128-3.575a5.392 5.392 0 0 1-3.464 1.564 2.2 2.2 0 0 1-2.346-2.458c0-1.564.894-2.681 4.469-2.681h1.341v3.575zm-41 6.145a7.43 7.43 0 0 1-3.91 2.9l-1.458-1.786a7.44 7.44 0 0 0 2.681-2.57c.447-.782.559-1.9.559-4.469V71.282h3.352v17.206c0 3.463-.335 4.8-1.229 6.145z"/></g><g fill="#1057fb"><path d="M38.233 154.782q-2.21 12.021-5.828 17.471-2.819 4.2-6.18 4.2a6.066 6.066 0 0 1-2.209-.539v-1.932a10.469 10.469 0 0 0 1.5.1 3.632 3.632 0 0 0 2.53-.868 3.167 3.167 0 0 0 1.152-2.375 15.866 15.866 0 0 0-.9-3.691l-3.97-12.361h3.554l2.849 9.245a12.512 12.512 0 0 1 .8 4.4 60.49 60.49 0 0 0 3.267-13.645h3.426m-15.683 15.984h-3.617q-.191-9.183-1.056-17.272h-.032l-5.508 17.272H9.573L4.1 153.5h-.033q-.609 7.768-.768 17.272H0q.32-11.558 1.6-21.671h4.484l5.216 15.922h.032l5.251-15.923h4.29q1.409 11.845 1.665 21.671M86.386 170.772H76.109V149.1h3.458v19.005h6.819v2.666m-25.84-4.335q-1.313-2.119-1.314-6.805 0-8.185 4.963-8.187a4.164 4.164 0 0 1 3.811 1.958q1.312 2.12 1.313 6.743 0 8.251-4.963 8.252a4.158 4.158 0 0 1-3.81-1.96m12.871 4.858l-3.973-1.964a7.433 7.433 0 0 0 .994-.968q2.53-2.982 2.531-8.827 0-10.754-8.421-10.756a7.963 7.963 0 0 0-6.436 2.73q-2.531 2.986-2.53 8.8 0 5.714 2.241 8.379 2.042 2.407 6.177 2.408a9.939 9.939 0 0 0 2.83-.381l5.174 3.019 1.411-2.436m-19.334-6.529a5.76 5.76 0 0 1-2.016 4.527 7.929 7.929 0 0 1-5.411 1.755 10.827 10.827 0 0 1-6.148-2.023l.928-1.862a10.517 10.517 0 0 0 4.641 1.284 4.862 4.862 0 0 0 3.058-.864 2.954 2.954 0 0 0 1.176-2.407c0-1.287-.9-2.387-2.537-3.309-1.516-.834-4.546-2.576-4.546-2.576a5.194 5.194 0 0 1-2.465-4.612 5.4 5.4 0 0 1 1.84-4.254 6.931 6.931 0 0 1 4.755-1.623 9.822 9.822 0 0 1 5.474 1.607l-.835 1.86a10.579 10.579 0 0 0-4.16-.9 3.7 3.7 0 0 0-2.56.8 2.687 2.687 0 0 0-.97 2.053c0 1.283.915 2.4 2.6 3.337 1.535.835 4.639 2.61 4.639 2.61a5.123 5.123 0 0 1 2.53 4.581M88.853 170.769h.573v-2.2h.75v-.45h-2.1v.45h.779zm4.361 0h.54v-2.655h-.812l-.661 1.81-.72-1.81h-.783v2.655h.511v-2.021h.029l.754 2.021h.389l.753-2.021v2.021M57.647 112.611a2.063 2.063 0 0 0-2.122 1.343c-.705 1.7 1.045 3.378 1.646 4.242a12.288 12.288 0 0 1 1.33 1.963c.183.445.236.918.419 1.388a31.207 31.207 0 0 0 1.358 3.51 12.36 12.36 0 0 0 .965 1.622c.211.29.575.419.654.892a7.531 7.531 0 0 0-.6 1.964 11.561 11.561 0 0 0 .758 8.8c.417.655 1.411 2.095 2.743 1.544 1.175-.47.914-1.963 1.253-3.271.078-.316.026-.524.182-.733v.053c.365.732.732 1.437 1.071 2.173a14.934 14.934 0 0 0 3.4 3.507c.625.473 1.122 1.284 1.905 1.572v-.079h-.051a2.885 2.885 0 0 0-.6-.523 12.91 12.91 0 0 1-1.358-1.572 33.516 33.516 0 0 1-2.924-4.766c-.419-.814-.784-1.7-1.124-2.514-.156-.313-.156-.785-.418-.942a9.812 9.812 0 0 0-1.253 1.778 14.842 14.842 0 0 0-.733 3.956c-.1.027-.051 0-.1.052-.835-.209-1.122-1.073-1.436-1.8a11.356 11.356 0 0 1-.235-6.994c.182-.549.968-2.277.653-2.8-.158-.5-.68-.785-.967-1.179a10.379 10.379 0 0 1-.939-1.676c-.627-1.466-.942-3.09-1.619-4.556a13.96 13.96 0 0 0-1.306-2.016 12.974 12.974 0 0 1-1.437-2.041c-.129-.289-.312-.761-.1-1.074a.417.417 0 0 1 .367-.341c.338-.288 1.305.078 1.644.235a13.245 13.245 0 0 1 2.585 1.309c.366.262.758.76 1.227.892h.55c.835.182 1.776.051 2.56.287a16.684 16.684 0 0 1 3.745 1.795 23.212 23.212 0 0 1 8.142 8.96c.314.6.446 1.152.733 1.779.548 1.286 1.228 2.6 1.776 3.851a17.206 17.206 0 0 0 1.856 3.509c.391.549 1.958.837 2.663 1.125a18.575 18.575 0 0 1 1.8.732c.888.549 1.774 1.178 2.611 1.781.417.314 1.723.968 1.8 1.493a12.045 12.045 0 0 0-5.067.733c-.392.157-1.018.157-1.071.654.21.209.236.55.42.839a6.1 6.1 0 0 0 1.357 1.6c.548.419 1.1.837 1.672 1.2 1.018.631 2.167 1 3.158 1.625.576.366 1.149.837 1.725 1.231.286.209.467.55.835.68v-.08c-.184-.235-.235-.575-.417-.838-.261-.26-.522-.5-.784-.758a12.459 12.459 0 0 0-2.715-2.644c-.836-.578-2.665-1.363-3-2.329l-.053-.053a10.5 10.5 0 0 0 1.8-.422c.887-.235 1.7-.182 2.61-.417.418-.106.836-.237 1.256-.366v-.237c-.473-.47-.81-1.1-1.306-1.545a34.982 34.982 0 0 0-4.309-3.221c-.811-.524-1.855-.863-2.718-1.309-.312-.157-.834-.235-1.017-.5a10.494 10.494 0 0 1-1.071-2.016c-.757-1.439-1.489-3.035-2.141-4.557a28.008 28.008 0 0 0-1.332-2.984 26.36 26.36 0 0 0-10.101-9.79 12.515 12.515 0 0 0-3.342-1.074c-.654-.027-1.306-.079-1.959-.1a10.4 10.4 0 0 1-1.2-.918 9.65 9.65 0 0 0-4.3-1.63zm6.443 6.473a4.173 4.173 0 0 0-1.071.132v.052h.051a8.849 8.849 0 0 0 .836 1.074c.21.419.393.836.6 1.256.026-.026.05-.053.05-.053a1.47 1.47 0 0 0 .551-1.309 5.949 5.949 0 0 1-.314-.551c-.156-.261-.5-.392-.705-.6z"/></g></g></svg>